<svg version="1.1" id="svg2" viewBox="0 0 270 270.00001" height="3in" width="3in" xmlns="http://www.w3.org/2000/svg">
  <defs id="defs4"></defs>
  
    
  
  <metadata id="metadata7">
    
      
        image/svg+xml
        
        
      
    
  </metadata>
  <g transform="translate(0,-782.3622)" id="layer1">
    <path d="m 120.90918,810.56426 a 66.782181,66.782787 0 0 0 -51.106772,51.15408 l 9.006099,0.60509 a 57.852001,57.852526 0 0 1 42.709673,-42.71006 l -0.609,-9.04911 z m 28.17773,0.043 -0.60509,9.00618 a 57.852001,57.852526 0 0 1 42.70967,42.71005 l 9.04904,-0.60899 a 66.782181,66.782787 0 0 0 -51.15362,-51.10727 z m -70.278403,78.68012 -9.049041,0.60901 a 66.782181,66.782787 0 0 0 51.686494,51.2263 l 0.51726,-9.01204 a 57.852001,57.852526 0 0 1 -43.154713,-42.8233 z m 112.382983,0 a 57.852001,57.852526 0 0 1 -43.15471,42.80961 l 0.52117,9.08621 a 66.782181,66.782787 0 0 0 51.63769,-51.29072 l -9.00415,-0.6051 z m -71.89067,-102.65015 5.29747,78.76601 -78.765299,-5.29752 0,31.39866 78.765299,-5.29752 -9.29498,161.88034 39.39338,0 -9.29498,-161.88034 78.7653,5.29752 0,-31.39866 -78.7653,5.29752 5.29747,-78.76601 z" style="color:#000000;clip-rule:nonzero;display:inline;overflow:visible;visibility:visible;opacity:1;isolation:auto;mix-blend-mode:normal;color-interpolation:sRGB;color-interpolation-filters:linearRGB;solid-color:#000000;solid-opacity:1;fill:#0000ff;fill-opacity:1;fill-rule:nonzero;stroke:#0000ff;stroke-width:8.55000019;stroke-linecap:round;stroke-linejoin:miter;stroke-miterlimit:4;stroke-dasharray:none;stroke-dashoffset:0;stroke-opacity:1;color-rendering:auto;image-rendering:auto;shape-rendering:auto;text-rendering:auto;enable-background:accumulate" id="path14354"></path>
  </g>
</svg>
